<svg width="24" height="24" viewBox="0 0 24 24" fill="none" xmlns="http://www.w3.org/2000/svg">
<path d="M5 12L12 19ZM5 12L6.67 10.33L12 5M5 12H19ZM11.293 4.293L5.963 9.623L4.293 11.293C4.10553 11.4805 4.00021 11.7348 4.00021 12C4.00021 12.2652 4.10553 12.5195 4.293 12.707L11.293 19.707C11.4805 19.8945 11.7348 19.9998 12 19.9998C12.2652 19.9998 12.5195 19.8945 12.707 19.707C12.8945 19.5195 12.9998 19.2652 12.9998 19C12.9998 18.7348 12.8945 18.4805 12.707 18.293L7.414 13H19C19.2652 13 19.5196 12.8946 19.7071 12.7071C19.8946 12.5196 20 12.2652 20 12C20 11.7348 19.8946 11.4804 19.7071 11.2929C19.5196 11.1054 19.2652 11 19 11H7.414L12.707 5.707C12.8945 5.51947 12.9998 5.26516 12.9998 5C12.9998 4.73484 12.8945 4.48053 12.707 4.293C12.5195 4.10553 12.2652 4.00021 12 4.00021C11.7348 4.00021 11.4805 4.10553 11.293 4.293Z" fill="black"/>
</svg>
