<svg width="24" height="24" viewBox="0 0 24 24" fill="none" xmlns="http://www.w3.org/2000/svg">
<path fill-rule="evenodd" clip-rule="evenodd" d="M2 8C2 5.79086 3.79086 4 6 4H18C20.2091 4 22 5.79086 22 8V17C22 19.2091 20.2091 21 18 21H6C3.79086 21 2 19.2091 2 17V8ZM6 6C4.89543 6 4 6.89543 4 8V17C4 18.1046 4.89543 19 6 19H18C19.1046 19 20 18.1046 20 17V8C20 6.89543 19.1046 6 18 6H6Z" fill="currentColor"/>
<path fill-rule="evenodd" clip-rule="evenodd" d="M7 1C7.55228 1 8 1.44772 8 2V5C8 5.55228 7.55228 6 7 6C6.44772 6 6 5.55228 6 5V2C6 1.44772 6.44772 1 7 1ZM17 1C17.5523 1 18 1.44772 18 2V5C18 5.55228 17.5523 6 17 6C16.4477 6 16 5.55228 16 5V2C16 1.44772 16.4477 1 17 1Z" fill="currentColor"/>
<path fill-rule="evenodd" clip-rule="evenodd" d="M2 10C2 9.44772 2.44772 9 3 9H21C21.5523 9 22 9.44772 22 10C22 10.5523 21.5523 11 21 11H3C2.44772 11 2 10.5523 2 10Z" fill="currentColor"/>
</svg>
