<svg width="24" height="24" viewBox="0 0 24 24" fill="none" xmlns="http://www.w3.org/2000/svg">
<path fill-rule="evenodd" clip-rule="evenodd" d="M8 9C9.10457 9 10 8.10457 10 7C10 5.89543 9.10457 5 8 5C6.89543 5 6 5.89543 6 7C6 8.10457 6.89543 9 8 9ZM8 11C10.2091 11 12 9.20914 12 7C12 4.79086 10.2091 3 8 3C5.79086 3 4 4.79086 4 7C4 9.20914 5.79086 11 8 11Z" fill="currentColor"/>
<path fill-rule="evenodd" clip-rule="evenodd" d="M1 7C1 6.44772 1.44772 6 2 6H5C5.55228 6 6 6.44772 6 7C6 7.55228 5.55228 8 5 8H2C1.44772 8 1 7.55228 1 7Z" fill="currentColor"/>
<path fill-rule="evenodd" clip-rule="evenodd" d="M10 7C10 6.44772 10.4477 6 11 6H22C22.5523 6 23 6.44772 23 7C23 7.55228 22.5523 8 22 8H11C10.4477 8 10 7.55228 10 7Z" fill="currentColor"/>
<path fill-rule="evenodd" clip-rule="evenodd" d="M16 15C14.8954 15 14 15.8954 14 17C14 18.1046 14.8954 19 16 19C17.1046 19 18 18.1046 18 17C18 15.8954 17.1046 15 16 15ZM16 13C13.7909 13 12 14.7909 12 17C12 19.2091 13.7909 21 16 21C18.2091 21 20 19.2091 20 17C20 14.7909 18.2091 13 16 13Z" fill="currentColor"/>
<path fill-rule="evenodd" clip-rule="evenodd" d="M23 17C23 17.5523 22.5523 18 22 18H19C18.4477 18 18 17.5523 18 17C18 16.4477 18.4477 16 19 16H22C22.5523 16 23 16.4477 23 17Z" fill="currentColor"/>
<path fill-rule="evenodd" clip-rule="evenodd" d="M14 17C14 17.5523 13.5523 18 13 18H2C1.44771 18 1 17.5523 1 17C1 16.4477 1.44771 16 2 16L13 16C13.5523 16 14 16.4477 14 17Z" fill="currentColor"/>
</svg>
