<svg width="24" height="24" viewBox="0 0 24 24" fill="none" xmlns="http://www.w3.org/2000/svg">
<g clip-path="url(#clip0_2_118)">
<path fill-rule="evenodd" clip-rule="evenodd" d="M20.0461 3.95417C18.8886 2.79663 17.0101 2.79638 15.8505 3.95601L11.6605 8.14605C10.5008 9.30568 10.5011 11.1841 11.6586 12.3417C12.8161 13.4992 14.6946 13.4994 15.8542 12.3398L20.0442 8.14976C21.2039 6.99013 21.2036 5.11171 20.0461 3.95417ZM21.9034 2.09689C24.0877 4.28124 24.0858 7.82272 21.9015 10.007L17.7115 14.1971C15.5272 16.3814 11.9857 16.3833 9.80132 14.1989C7.61696 12.0146 7.61888 8.47307 9.80318 6.28877L13.9932 2.09873C16.1775 -0.0855851 19.719 -0.087464 21.9034 2.09689Z" fill="currentColor"/>
<path fill-rule="evenodd" clip-rule="evenodd" d="M8.37953 11.4172L4.17826 15.6185C4.17809 15.6186 4.17842 15.6183 4.17826 15.6185C3.62207 16.1759 3.30921 16.9316 3.30921 17.7191C3.30921 18.5064 3.62148 19.2616 4.17749 19.819C4.73397 20.3746 5.48823 20.6867 6.27465 20.6867C7.06131 20.6867 7.81579 20.3744 8.37232 19.8184L12.5733 15.6175C12.5734 15.6174 12.5732 15.6176 12.5733 15.6175C12.8498 15.3402 13.0698 15.011 13.22 14.6493C13.4981 13.9794 14.2666 13.6619 14.9365 13.94C15.6063 14.2181 15.9239 14.9867 15.6457 15.6565C15.3639 16.3353 14.9518 16.9522 14.4328 17.4725L10.2291 21.6762C9.18009 22.7242 7.75746 23.3133 6.27465 23.3133C4.79185 23.3133 3.36968 22.7246 2.32064 21.6767L2.31937 21.6754C1.27128 20.6255 0.682617 19.2026 0.682617 17.7191C0.682617 16.2356 1.27128 14.8127 2.31937 13.7628L6.52272 9.55943C7.57176 8.51145 8.9944 7.92233 10.4772 7.92233C11.96 7.92233 13.3822 8.51098 14.4312 9.55896L14.4427 9.57057C14.7095 9.84386 14.9454 10.1458 15.146 10.4708C15.5269 11.088 15.3353 11.8972 14.7181 12.2781C14.1008 12.659 13.2917 12.4675 12.9108 11.8502C12.8131 11.6919 12.6985 11.5448 12.569 11.4114C12.0131 10.859 11.2611 10.5489 10.4772 10.5489C9.69076 10.5489 8.93602 10.8615 8.37953 11.4172Z" fill="currentColor"/>
</g>
<defs>
<clipPath id="clip0_2_118">
<rect width="24" height="24" fill="white"/>
</clipPath>
</defs>
</svg>
