<svg width="24" height="24" viewBox="0 0 24 24" fill="none" xmlns="http://www.w3.org/2000/svg">
<g clip-path="url(#clip0_2_111)">
<path fill-rule="evenodd" clip-rule="evenodd" d="M0.740723 1.99999C0.740723 1.30441 1.3046 0.74054 2.00017 0.74054H22.0002C22.6957 0.74054 23.2596 1.30441 23.2596 1.99999V22C23.2596 22.6956 22.6957 23.2594 22.0002 23.2594H2.00017C1.3046 23.2594 0.740723 22.6956 0.740723 22V1.99999ZM3.25961 3.25943V20.7405H20.7407V3.25943H3.25961Z" fill="currentColor"/>
<path fill-rule="evenodd" clip-rule="evenodd" d="M15.5215 8.47856C15.5215 9.17413 14.9576 9.73801 14.262 9.73801H9.60209C8.90652 9.73801 8.34264 9.17413 8.34264 8.47856V2.11584C8.34264 1.42026 8.90652 0.856391 9.60209 0.856391H14.262C14.9576 0.856391 15.5215 1.42026 15.5215 2.11584L15.5215 8.47856ZM13.0026 7.21911V3.37528L10.8615 3.37528V7.21911H13.0026Z" fill="currentColor"/>
</g>
<defs>
<clipPath id="clip0_2_111">
<rect width="24" height="24" fill="white"/>
</clipPath>
</defs>
</svg>
