<svg width="24" height="24" viewBox="0 0 24 24" fill="none" xmlns="http://www.w3.org/2000/svg">
<path d="M8 6.00261C8 4.94106 8.4217 3.92295 9.17234 3.17232C9.92297 2.42168 10.941 2 12.0026 2C13.0642 2 14.0822 2.42168 14.8329 3.17232C15.5835 3.92295 16.0052 4.94106 16.0052 6.00261C16.0052 8.21293 14.2129 10.6218 12.0026 10.6218C9.79229 10.6218 8 8.21293 8 6.00261Z" stroke="currentColor" stroke-width="2.61266" stroke-miterlimit="10"/>
<path d="M12 22.64C14.9877 22.6427 17.8583 21.4783 19.9999 19.3951C19.4147 16.5003 16.06 14.2795 12 14.2795C7.93989 14.2795 4.58001 16.5003 4 19.3951C6.14105 21.4793 9.01204 22.6438 12 22.64Z" stroke="currentColor" stroke-width="2.61266" stroke-miterlimit="10"/>
</svg>
