<svg width="24" height="24" viewBox="0 0 24 24" fill="none" xmlns="http://www.w3.org/2000/svg">
<path fill-rule="evenodd" clip-rule="evenodd" d="M6 2C6.55228 2 7 2.44772 7 3V18.5858L9.29289 16.2929C9.68342 15.9024 10.3166 15.9024 10.7071 16.2929C11.0976 16.6834 11.0976 17.3166 10.7071 17.7071L6.70711 21.7071C6.31658 22.0976 5.68342 22.0976 5.29289 21.7071L1.29289 17.7071C0.902369 17.3166 0.902369 16.6834 1.29289 16.2929C1.68342 15.9024 2.31658 15.9024 2.70711 16.2929L5 18.5858V3C5 2.44772 5.44772 2 6 2Z" fill="currentColor"/>
<path fill-rule="evenodd" clip-rule="evenodd" d="M18 22C17.4477 22 17 21.5523 17 21V5.41422L14.7071 7.70711C14.3166 8.09763 13.6834 8.09763 13.2929 7.70711C12.9024 7.31658 12.9024 6.68342 13.2929 6.29289L17.2929 2.29289C17.6834 1.90237 18.3166 1.90237 18.7071 2.29289L22.7071 6.29289C23.0976 6.68342 23.0976 7.31658 22.7071 7.70711C22.3166 8.09763 21.6834 8.09763 21.2929 7.70711L19 5.41422L19 21C19 21.5523 18.5523 22 18 22Z" fill="currentColor"/>
</svg>
