<svg width="98" height="32" viewBox="0 0 98 32" fill="none" xmlns="http://www.w3.org/2000/svg">
<path d="M7.32146 31.7541C7.10461 31.6005 6.94138 31.3832 6.85496 31.1329L6.48167 29.9932C6.40926 29.7763 6.28723 29.5794 6.12559 29.417C5.96356 29.2555 5.76551 29.1337 5.54746 29.0617L4.41961 28.696C4.15755 28.6084 3.9299 28.4405 3.76987 28.2161C3.61343 27.9984 3.53021 27.7373 3.53101 27.4703C3.53141 27.2013 3.61623 26.9391 3.77347 26.7198C3.9299 26.4998 4.15195 26.3346 4.40841 26.2479L5.55306 25.879C5.76591 25.8038 5.95836 25.6812 6.11639 25.5205C6.27443 25.3597 6.39285 25.1651 6.46327 24.9518L6.83215 23.8288C6.91897 23.575 7.08261 23.3541 7.30106 23.1973C7.51951 23.0401 7.78156 22.9542 8.05082 22.9518C8.32049 22.949 8.58414 23.0298 8.80539 23.183C9.02664 23.3358 9.19508 23.5535 9.2867 23.8054L9.66119 24.953C9.7344 25.1683 9.85683 25.3637 10.0189 25.5236C10.1809 25.684 10.3777 25.8046 10.5946 25.8766L11.7236 26.2423C11.9837 26.3231 12.2118 26.4835 12.3754 26.7007C12.5386 26.9176 12.6295 27.1806 12.6343 27.4516C12.6391 27.723 12.5582 27.9884 12.4026 28.2113C12.247 28.4341 12.0253 28.6024 11.7681 28.6928L10.6142 29.0652C10.3978 29.1385 10.2013 29.2602 10.0397 29.4206C9.87763 29.5822 9.75561 29.7791 9.68359 29.9956L9.31711 31.115C9.22909 31.3756 9.05945 31.6017 8.8334 31.76C8.61495 31.9164 8.35249 32.0004 8.08363 32C7.80917 31.9996 7.54271 31.9136 7.32146 31.7541Z" fill="#2563EB"/>
<path d="M5.22704 12.2042C4.92801 11.9913 4.7029 11.69 4.58373 11.343L4.06897 9.76285C3.96911 9.46216 3.80084 9.18906 3.57794 8.96396C3.35449 8.73996 3.08139 8.57113 2.7807 8.47127L1.22539 7.96424C0.864007 7.84286 0.550077 7.61003 0.329387 7.29886C0.113663 6.99706 -0.00109556 6.63513 7.88338e-06 6.26492C0.000559608 5.89196 0.117525 5.52837 0.334353 5.22437C0.550077 4.91927 0.856283 4.6903 1.20994 4.57003L2.78842 4.05858C3.08194 3.9543 3.34732 3.78437 3.56525 3.56148C3.78318 3.33858 3.94649 3.06879 4.04359 2.77306L4.55228 1.2161C4.67201 0.864097 4.89766 0.557889 5.19891 0.340509C5.50015 0.122578 5.86153 0.00340697 6.23284 9.66235e-05C6.6047 -0.00376545 6.96828 0.108234 7.27339 0.320648C7.57849 0.53251 7.81077 0.834302 7.93711 1.18354L8.45352 2.77472C8.55449 3.0732 8.72332 3.3441 8.94677 3.56589C9.17021 3.78824 9.44166 3.95541 9.7407 4.05527L11.2977 4.5623C11.6563 4.6743 11.9708 4.89665 12.1964 5.19789C12.4215 5.49858 12.5468 5.86327 12.5534 6.23899C12.56 6.61527 12.4486 6.98327 12.2339 7.29223C12.0193 7.6012 11.7137 7.83458 11.3589 7.95982L9.76773 8.47623C9.46925 8.57775 9.19835 8.74658 8.97546 8.96892C8.75201 9.19292 8.58373 9.46603 8.48442 9.76617L7.97904 11.3182C7.85766 11.6795 7.62373 11.9929 7.31201 12.2125C7.01077 12.4293 6.64884 12.5458 6.27808 12.5452C5.89959 12.5446 5.53215 12.4255 5.22704 12.2042Z" fill="#2563EB"/>
<path d="M16.2825 26.8277C16.666 27.0991 17.1244 27.2442 17.5945 27.2426V27.2365C18.0375 27.2376 18.4706 27.1085 18.8414 26.8652C19.2116 26.6219 19.5024 26.2754 19.6773 25.8682L20.6389 22.943C20.8613 22.2804 21.2342 21.6784 21.7291 21.1852C22.224 20.6914 22.8271 20.3201 23.4902 20.0999L26.2803 19.1929C26.73 19.0351 27.1178 18.7394 27.3898 18.3482C27.6618 17.957 27.8031 17.4897 27.7937 17.0136C27.7849 16.5375 27.6254 16.0762 27.3396 15.6955C27.0533 15.3148 26.6538 15.034 26.1986 14.8933L23.4444 13.999C22.7785 13.7772 22.1727 13.4031 21.6767 12.9066C21.1802 12.41 20.8066 11.8042 20.5854 11.1383L19.6784 8.34876C19.52 7.90463 19.2276 7.52063 18.8414 7.25083C18.4546 6.98049 17.994 6.83759 17.5228 6.84145C17.0516 6.84532 16.5926 6.99594 16.2108 7.27235C15.829 7.54876 15.5426 7.93718 15.3915 8.38407L14.4767 11.1962C14.256 11.8434 13.8913 12.4315 13.4102 12.917C12.9291 13.4026 12.3437 13.7722 11.6993 13.999L8.91092 14.895C8.57933 15.0108 8.2792 15.2028 8.03423 15.4544C7.78927 15.7066 7.60609 16.0117 7.49961 16.3466C7.39313 16.6815 7.36609 17.0362 7.42016 17.3838C7.47423 17.7308 7.60885 18.0608 7.81244 18.3471C8.08996 18.7377 8.48389 19.0312 8.9374 19.1852L11.69 20.0779C12.3581 20.3013 12.9644 20.6776 13.4615 21.1763C13.5951 21.3088 13.7197 21.45 13.8351 21.5984C14.1479 22.0028 14.389 22.458 14.549 22.9435L15.456 25.7292C15.61 26.1722 15.8991 26.5562 16.2825 26.8277Z" fill="#2563EB"/>
<path d="M34.7116 6.28837H43.0465C43.8899 6.28837 44.6589 6.36279 45.3535 6.51163C46.0481 6.66046 46.6434 6.90853 47.1395 7.25581C47.6357 7.58656 48.016 8.03307 48.2806 8.59535C48.5618 9.15762 48.7023 9.8522 48.7023 10.6791C48.7023 11.5721 48.4956 12.3163 48.0822 12.9116C47.6853 13.507 47.0899 13.9948 46.2961 14.3752C47.3876 14.6894 48.1979 15.2434 48.7271 16.0372C49.2729 16.8145 49.5457 17.7571 49.5457 18.8651C49.5457 19.7581 49.3721 20.5354 49.0248 21.1969C48.6775 21.8419 48.2062 22.3711 47.6109 22.7845C47.032 23.1979 46.3623 23.5039 45.6016 23.7023C44.8574 23.9008 44.0884 24 43.2946 24H34.7116V6.28837ZM42.7736 20.9736C43.154 20.9736 43.5178 20.9406 43.8651 20.8744C44.2124 20.7917 44.5183 20.6677 44.7829 20.5023C45.0475 20.3204 45.2543 20.0806 45.4031 19.7829C45.5685 19.4853 45.6512 19.1049 45.6512 18.6419C45.6512 17.7323 45.3948 17.0873 44.8822 16.707C44.3695 16.3101 43.6915 16.1116 42.8481 16.1116H38.6062V20.9736H42.7736ZM42.5504 13.4574C43.245 13.4574 43.8155 13.292 44.262 12.9612C44.7085 12.6305 44.9318 12.093 44.9318 11.3488C44.9318 10.9354 44.8574 10.5964 44.7085 10.3318C44.5597 10.0672 44.3612 9.86046 44.1132 9.71163C43.8651 9.56279 43.5757 9.46357 43.245 9.41395C42.9308 9.3478 42.6 9.31473 42.2527 9.31473H38.6062V13.4574H42.5504ZM55.3529 16.8062L50.8382 11.1752H54.7328L58.8754 16.5333V11.1752H62.1994V16.5333L66.3421 11.1752H70.2366L65.5483 16.6822L70.7328 24H66.6645L62.9684 18.4682L62.1994 19.4605V24H58.8754V19.6589L57.9576 18.4682L54.4103 24H50.3421L55.3529 16.8062ZM73.8465 28.4899C73.4827 28.4899 73.1189 28.4734 72.755 28.4403C72.4078 28.4238 72.0522 28.399 71.6884 28.3659V25.4636C71.9695 25.4966 72.2589 25.5214 72.5566 25.538C72.8708 25.5711 73.1767 25.5876 73.4744 25.5876C74.0036 25.5876 74.4088 25.4388 74.6899 25.1411C74.9711 24.8434 75.1116 24.463 75.1116 24C75.1116 23.7189 75.062 23.4543 74.9628 23.2062L70.4729 11.1752H74.2186L77.1209 19.9566H77.1705L79.9736 11.1752H83.6202L78.262 25.5876C77.8817 26.6295 77.3525 27.3736 76.6744 27.8202C75.9964 28.2667 75.0537 28.4899 73.8465 28.4899ZM88.0742 17.2527L83.8572 11.1752H87.8758L90.1331 14.524L92.3657 11.1752H96.2603L92.0432 17.1783L96.7812 24H92.7626L90.0835 19.9566L87.4045 24H83.4603L88.0742 17.2527Z" fill="#13181C"/>
</svg>
