<svg width="40" height="40" viewBox="0 0 40 40" fill="none" xmlns="http://www.w3.org/2000/svg">
<circle cx="20" cy="20" r="20" fill="#326EF6"/>
<path fill-rule="evenodd" clip-rule="evenodd" d="M7.86567 17.0193C7.14674 16.9435 6.42201 17.0923 5.79108 17.4453C5.16015 17.7983 4.654 18.338 4.34221 18.9904C4.03041 19.6428 3.92827 20.3757 4.04983 21.0885C4.17138 21.8013 4.51067 22.459 5.02104 22.971C5.53142 23.4831 6.18784 23.8245 6.90007 23.9483C7.6123 24.0721 8.34538 23.9722 8.99855 23.6624C9.65172 23.3525 10.1929 22.8479 10.5477 22.2179C10.9025 21.5879 11.0536 20.8635 10.9801 20.1441C10.8992 19.3445 10.5453 18.5972 9.97807 18.0281C9.41081 17.4589 8.6648 17.1026 7.86567 17.0193ZM7.75228 22.3522C7.36562 22.4041 6.97243 22.3335 6.62796 22.1503C6.28349 21.9671 6.00507 21.6806 5.83182 21.3309C5.65857 20.9813 5.5992 20.5862 5.66206 20.201C5.72492 19.8159 5.90685 19.4602 6.18228 19.1838C6.4577 18.9075 6.81278 18.7244 7.19761 18.6603C7.58244 18.5962 7.97767 18.6544 8.32775 18.8266C8.67783 18.9988 8.96517 19.2764 9.14938 19.6203C9.33359 19.9643 9.40541 20.3574 9.35475 20.7443C9.30159 21.1513 9.11578 21.5294 8.82608 21.82C8.53639 22.1107 8.15898 22.2978 7.75228 22.3522ZM12.8516 17.1577C12.7303 17.158 12.6105 17.1854 12.501 17.2378C12.3916 17.2902 12.2952 17.3664 12.2188 17.4607C12.1425 17.5551 12.0882 17.6653 12.0598 17.7834C12.0314 17.9014 12.0297 18.0243 12.0547 18.143C12.1315 18.5278 12.4908 18.7907 12.8823 18.7907H15.1538L11.6188 23.4701C11.5926 23.5046 11.5766 23.5458 11.5725 23.5889C11.5685 23.6321 11.5765 23.6755 11.5957 23.7143C11.6149 23.7531 11.6445 23.7859 11.6813 23.8088C11.7181 23.8317 11.7605 23.8439 11.8038 23.8441H17.3489C17.74 23.8441 18.0996 23.5813 18.1764 23.1964C18.2015 23.0776 18.1998 22.9548 18.1714 22.8368C18.143 22.7188 18.0887 22.6086 18.0124 22.5142C17.9362 22.4198 17.8398 22.3436 17.7304 22.2912C17.6209 22.2387 17.5012 22.2113 17.3799 22.211H14.6121L18.1445 17.5352C18.1709 17.5004 18.187 17.4588 18.1911 17.4153C18.1953 17.3717 18.1872 17.3279 18.1677 17.2887C18.1483 17.2495 18.1184 17.2164 18.0813 17.1933C18.0441 17.1702 18.0013 17.1579 17.9576 17.1577H12.8516ZM35.0094 17.1766C34.8258 17.2202 34.6626 17.3253 34.5468 17.4743C34.431 17.6233 34.3695 17.8074 34.3725 17.9961V20.715L29.9679 17.2091C29.9334 17.1817 29.8918 17.1645 29.848 17.1597C29.8042 17.1549 29.7598 17.1625 29.7202 17.1817C29.6805 17.201 29.647 17.231 29.6237 17.2684C29.6003 17.3059 29.588 17.3491 29.5881 17.3932V23.0072C29.5851 23.1959 29.6466 23.38 29.7624 23.529C29.8782 23.6781 30.0414 23.7831 30.225 23.8267C30.3442 23.853 30.4678 23.8521 30.5866 23.8242C30.7054 23.7963 30.8165 23.742 30.9116 23.6655C31.0066 23.5889 31.0833 23.492 31.136 23.3818C31.1886 23.2717 31.2158 23.1511 31.2157 23.029V20.2865L35.6203 23.7926C35.6548 23.82 35.6964 23.8371 35.7402 23.8419C35.784 23.8467 35.8283 23.8391 35.8679 23.8199C35.9076 23.8006 35.9411 23.7706 35.9644 23.7332C35.9878 23.6958 36.0001 23.6526 36 23.6085V17.974C36.0001 17.852 35.9729 17.7314 35.9202 17.6213C35.8676 17.5112 35.7909 17.4143 35.6958 17.3378C35.6008 17.2612 35.4897 17.207 35.3709 17.1791C35.2521 17.1512 35.1286 17.1503 35.0094 17.1766ZM23.5412 18.6344C25.4042 18.6344 26.7962 19.6192 26.7962 20.5001C26.7962 21.381 25.4042 22.3658 23.5412 22.3658C21.6781 22.3658 20.2861 21.381 20.2861 20.5001C20.2861 19.6192 21.6781 18.6344 23.5412 18.6344ZM23.5412 17.0015C20.8445 17.0015 18.6585 18.5679 18.6585 20.5001C18.6585 22.4323 20.8445 23.9987 23.5412 23.9987C26.2378 23.9987 28.4237 22.4323 28.4237 20.5001C28.4237 18.5679 26.2377 17.0015 23.5412 17.0015Z" fill="white"/>
</svg>
