<svg width="40" height="40" viewBox="0 0 40 40" fill="none" xmlns="http://www.w3.org/2000/svg">
<mask id="mask0_4_301" style="mask-type:alpha" maskUnits="userSpaceOnUse" x="0" y="0" width="40" height="40">
<circle cx="20" cy="20" r="20" fill="#326EF6"/>
</mask>
<g mask="url(#mask0_4_301)">
<rect width="40" height="40" fill="url(#paint0_linear_4_301)"/>
<path d="M12.6974 25L10.2344 16.2727H11.9347L13.5071 22.6861H13.5881L15.267 16.2727H16.8139L18.4972 22.6903H18.5739L20.1463 16.2727H21.8466L19.3835 25H17.8239L16.0767 18.8764H16.0085L14.2571 25H12.6974ZM22.9428 25V16.2727H26.2837C26.9144 16.2727 27.4386 16.3722 27.8562 16.571C28.2766 16.767 28.5906 17.0355 28.7979 17.3764C29.0082 17.7173 29.1133 18.1037 29.1133 18.5355C29.1133 18.8906 29.0451 19.1946 28.9087 19.4474C28.7724 19.6974 28.5891 19.9006 28.359 20.0568C28.1289 20.2131 27.8718 20.3253 27.5877 20.3935V20.4787C27.8974 20.4957 28.1942 20.5909 28.4783 20.7642C28.7653 20.9347 28.9996 21.1761 29.1815 21.4886C29.3633 21.8011 29.4542 22.179 29.4542 22.6222C29.4542 23.0739 29.3448 23.4801 29.1261 23.8409C28.9073 24.1989 28.5778 24.4815 28.1374 24.6889C27.6971 24.8963 27.1431 25 26.4755 25H22.9428ZM24.5238 23.679H26.2241C26.7979 23.679 27.2113 23.5696 27.4641 23.3509C27.7198 23.1293 27.8477 22.8452 27.8477 22.4986C27.8477 22.2401 27.7837 22.0071 27.6559 21.7997C27.5281 21.5895 27.3462 21.4247 27.1104 21.3054C26.8746 21.1832 26.5934 21.1222 26.2667 21.1222H24.5238V23.679ZM24.5238 19.9844H26.0877C26.3604 19.9844 26.6062 19.9347 26.8249 19.8352C27.0437 19.733 27.2156 19.5895 27.3406 19.4048C27.4684 19.2173 27.5323 18.9957 27.5323 18.7401C27.5323 18.402 27.413 18.1236 27.1744 17.9048C26.9386 17.6861 26.5877 17.5767 26.1218 17.5767H24.5238V19.9844Z" fill="white"/>
</g>
<defs>
<linearGradient id="paint0_linear_4_301" x1="42.4" y1="-2.6" x2="-2.2" y2="42.8" gradientUnits="userSpaceOnUse">
<stop offset="0.131595" stop-color="#6300A0"/>
<stop offset="0.889034" stop-color="#D500BC"/>
</linearGradient>
</defs>
</svg>
