<svg width="41" height="40" viewBox="0 0 41 40" fill="none" xmlns="http://www.w3.org/2000/svg">
<path d="M20.0007 40C31.067 40 40 31.0667 40 20C40 8.93333 31.067 0 20.0007 0C8.93446 0 0.00145197 8.93333 0.00145197 20C-0.131877 31.0667 8.93446 40 20.0007 40Z" fill="#FED42B"/>
<mask id="mask0_10_558" style="mask-type:luminance" maskUnits="userSpaceOnUse" x="0" y="0" width="41" height="41">
<path d="M20.0509 40.0989C31.1449 40.0989 40.1003 31.1434 40.1003 20.0494C40.1003 8.95541 31.1449 0 20.0509 0C8.95687 0 0.00145562 8.95541 0.00145562 20.0494C-0.132207 31.1434 8.95687 40.0989 20.0509 40.0989Z" fill="white"/>
</mask>
<g mask="url(#mask0_10_558)">
<path d="M10.1596 10.9604L-7.48389 34.084L-2.80569 39.4306L10.2933 22.0544L8.95664 31.5444L16.3081 34.084L25.2635 19.7821C24.8625 22.4554 24.1942 28.6039 30.0754 30.4751C39.2981 33.2821 47.3179 16.7079 51.0605 8.28711L45.7139 5.48019C41.5704 14.1683 35.1546 23.792 32.615 23.1237C30.0754 22.4554 32.3476 14.3019 33.8179 9.08909V8.95543L25.6645 6.14851L15.9071 22.0544L17.2437 13.3663L10.1596 10.9604Z" fill="black"/>
</g>
</svg>
